<?xml version="1.0" encoding="UTF-8"?>
<svg width="1440px" height="800px" viewBox="0 0 1440 800" version="1.1" xmlns="http://www.w3.org/2000/svg" xmlns:xlink="http://www.w3.org/1999/xlink">
    <!-- Generator: Sketch 51.3 (57544) - http://www.bohemiancoding.com/sketch -->
    <title>support form copy 6</title>
    <desc>Created with Sketch.</desc>
    <defs></defs>
    <g id="support-form-copy-6" stroke="none" stroke-width="1" fill="none" fill-rule="evenodd">
        <rect fill="#1D1E1F" x="0" y="0" width="1440" height="800"></rect>
        <g id="Group-20-Copy" opacity="0.0161551339" transform="translate(0.000000, -303.000000)" fill="#D8D8D8">
            <path d="M464.038694,0 L679.081016,124.498186 L679.081016,373.494559 L464.038694,497.992745 L248.996372,373.494559 L248.996372,124.498186 L464.038694,0 Z M464.038694,70.0302297 L309.477025,159.513301 L309.477025,338.479444 L464.038694,427.962515 L618.600363,338.479444 L618.600363,159.513301 L464.038694,70.0302297 Z" id="Combined-Shape"></path>
            <path d="M464.038694,893.252721 L679.081016,1017.75091 L679.081016,1266.74728 L464.038694,1391.24547 L248.996372,1266.74728 L248.996372,1017.75091 L464.038694,893.252721 Z M464.038694,963.28295 L309.477025,1052.76602 L309.477025,1231.73216 L464.038694,1321.21524 L618.600363,1231.73216 L618.600363,1052.76602 L464.038694,963.28295 Z" id="Combined-Shape-Copy-3"></path>
            <path d="M976.042322,908 L1191.08464,1032.49819 L1191.08464,1281.49456 L976.042322,1405.99274 L761,1281.49456 L761,1032.49819 L976.042322,908 Z M976.042322,978.03023 L821.480653,1067.5133 L821.480653,1246.47944 L976.042322,1335.96252 L1130.60399,1246.47944 L1130.60399,1067.5133 L976.042322,978.03023 Z" id="Combined-Shape-Copy-7"></path>
            <path d="M728.706167,450.979444 L943.748489,575.47763 L943.748489,824.474002 L728.706167,948.972189 L513.663845,824.474002 L513.663845,575.47763 L728.706167,450.979444 Z M728.706167,521.009674 L574.144498,610.492745 L574.144498,789.458888 L728.706167,878.941959 L883.267836,789.458888 L883.267836,610.492745 L728.706167,521.009674 Z" id="Combined-Shape-Copy-2"></path>
            <path d="M1225.04232,451 L1440.08464,575.498186 L1440.08464,824.494559 L1225.04232,948.992745 L1010,824.494559 L1010,575.498186 L1225.04232,451 Z M1225.04232,521.03023 L1070.48065,610.513301 L1070.48065,789.479444 L1225.04232,878.962515 L1379.60399,789.479444 L1379.60399,610.513301 L1225.04232,521.03023 Z" id="Combined-Shape-Copy-5"></path>
            <path d="M215.042322,450.979444 L430.084643,575.47763 L430.084643,824.474002 L215.042322,948.972189 L2.38742359e-12,824.474002 L2.25242047e-12,575.47763 L215.042322,450.979444 Z M215.042322,521.009674 L60.480653,610.492745 L60.480653,789.458888 L215.042322,878.941959 L369.60399,789.458888 L369.60399,610.492745 L215.042322,521.009674 Z" id="Combined-Shape-Copy-6" opacity="0"></path>
        </g>
    </g>
</svg>