<?xml version="1.0" encoding="UTF-8"?>
<svg width="170px" height="40px" viewBox="0 0 170 40" version="1.1" xmlns="http://www.w3.org/2000/svg" xmlns:xlink="http://www.w3.org/1999/xlink">
    <!-- Generator: Sketch 51.3 (57544) - http://www.bohemiancoding.com/sketch -->
    <title>logo</title>
    <desc>Created with Sketch.</desc>
    <defs></defs>
    <g id="logo" stroke="none" stroke-width="1" fill="none" fill-rule="evenodd">
        <g id="02-rgb-elettro_ciano" transform="translate(8.000000, 6.000000)" fill-rule="nonzero">
            <path d="M25.1038572,27.9995633 C27.32157,27.9995633 29.2734205,27.4141099 30.5619313,26.2445134 C31.5856767,25.3203662 32.1917638,24.0559966 32.2487969,22.4714948 L29.7663186,22.4714948 C29.7095048,23.4716351 29.3304536,24.2451061 28.705063,24.7916894 C27.871282,25.5465989 26.582113,25.9427243 25.0852117,25.9427243 C22.8868025,25.9427243 21.2574087,25.1124768 20.5368166,23.509195 C20.2150179,22.8101886 20.0818674,21.9995945 20.0818674,20.9998908 C20.0818674,19.9999688 20.2336634,19.1889379 20.5368166,18.4903683 C21.2381052,16.9434262 22.830208,16.0564022 25.0852117,16.0564022 C26.5448221,16.0564022 27.7762998,16.4529644 28.6103002,17.2074371 C29.2356908,17.7743289 29.6338262,18.5281465 29.7288084,19.5097253 L32.2112867,19.5097253 C32.1544728,18.0001248 31.547947,16.7176304 30.5242017,15.7548315 C29.2166066,14.6040149 27.3027052,14.0002184 25.1040765,14.0002184 C21.6362406,14.0002184 19.2294409,15.3967026 18.1870501,17.7171156 C17.7702693,18.6600427 17.5427947,19.755393 17.5427947,21.0001092 C17.5427947,22.2264822 17.7511851,23.3203038 18.1870501,24.2828844 C19.2292216,26.6408573 21.6169371,27.9995633 25.1038572,27.9995633 Z M44.4740758,27.6591225 L46.9758576,27.6591225 L41.2710053,14.3400041 L37.878848,14.3400041 L32.1555696,27.6591225 L34.6950811,27.6591225 L36.0219797,24.4711204 L43.1478353,24.4711204 L44.4740758,27.6591225 Z M36.8366765,22.4902747 L39.5468488,15.9247243 L39.5843591,15.9247243 L42.3131768,22.4902747 L36.8366765,22.4902747 Z M57.182601,27.6591225 L60.2150106,27.6591225 L55.1357684,22.2443886 C57.0119402,22.1694873 58.3008898,21.4337945 58.9074156,20.0748701 C59.1535357,19.5468484 59.267602,18.9052737 59.267602,18.1890159 C59.267602,17.5277877 59.1533163,16.9432079 58.9260611,16.4529644 C58.3008898,15.0189203 56.7465166,14.3397857 54.5292426,14.3397857 L48.0483005,14.3397857 L48.0483005,27.6589041 L50.4167125,27.6589041 L50.4167125,22.2633869 L52.2362899,22.2633869 L57.182601,27.6591225 Z M50.4169318,16.26451 L53.9422396,16.26451 C55.3448169,16.26451 56.3299551,16.5093042 56.6903609,17.3402068 C56.8039885,17.585001 56.8608023,17.8872268 56.8608023,18.2455741 C56.8608023,18.679041 56.8037692,19.0002652 56.6710574,19.2830559 C56.3299551,20.0750885 55.4009726,20.3395361 53.9422396,20.3395361 L50.4169318,20.3395361 L50.4169318,16.26451 Z M72.1452525,22.4142815 C71.7096069,21.490571 70.8753871,20.9243344 69.6243865,20.6788851 C70.5531497,20.4148742 71.2158312,19.905414 71.5573722,19.1697213 C71.7471171,18.7548159 71.8414412,18.2455741 71.8414412,17.679119 C71.8414412,17.1325358 71.7468978,16.6794154 71.5380686,16.2455117 C70.9510657,14.9435822 69.4723712,14.3400041 67.4825717,14.3400041 L61.3045635,14.3400041 L61.3045635,27.6591225 L67.5589084,27.6591225 C69.7382335,27.6591225 71.4626094,27.0182028 72.1257296,25.5463805 C72.33412,25.1124768 72.4291022,24.6030166 72.4291022,23.9808769 C72.4293216,23.3583004 72.3343394,22.8671835 72.1452525,22.4142815 Z M63.6738529,16.1695185 L66.5167369,16.1695185 C67.8052478,16.1695185 68.8283351,16.4149678 69.207825,17.2074371 C69.3025878,17.4343248 69.3782664,17.679119 69.3782664,18.0191231 C69.3782664,18.3774703 69.321672,18.6423547 69.207825,18.8873672 C68.8476386,19.6601831 67.8809264,19.9438474 66.5546859,19.9438474 L63.6740723,19.9438474 L63.6740723,16.1695185 L63.6738529,16.1695185 Z M69.7191493,24.716133 C69.3589629,25.5463805 68.260197,25.829608 66.8385356,25.829608 L63.6738529,25.829608 L63.6738529,21.7923601 L66.8764846,21.7923601 C68.2604164,21.7923601 69.321672,22.0751509 69.7384528,22.9619566 C69.8518611,23.2069692 69.9084555,23.4714168 69.9084555,23.8299824 C69.9082362,24.1691129 69.8327769,24.4711204 69.7191493,24.716133 Z M81.0821305,27.9995633 C84.5690506,27.9995633 86.9190365,26.6408573 87.9614273,24.376784 C88.4159378,23.3960787 88.6434124,22.2443886 88.6434124,20.9998908 C88.6434124,19.7728627 88.4159378,18.6421363 87.9802921,17.6601207 C86.9576436,15.3774859 84.6067803,14 81.1009953,14 C77.594991,14 75.225921,15.3964842 74.1837495,17.7168973 C73.7669687,18.6598244 73.5392747,19.791861 73.5392747,20.9998908 C73.5392747,22.2262638 73.7669687,23.3583004 74.2026143,24.3197891 C75.2261403,26.6408573 77.594991,27.9995633 81.0821305,27.9995633 Z M81.1009953,25.923726 C78.8080426,25.923726 77.2348046,25.0181404 76.5528196,23.4899783 C76.2305822,22.7542855 76.0790056,21.9618162 76.0790056,20.9998908 C76.0790056,20.037747 76.2303628,19.2452777 76.5528196,18.5095849 C77.2348046,16.9812045 78.8080426,16.0756188 81.1009953,16.0756188 C83.3755219,16.0756188 84.9483212,16.9812045 85.6491711,18.5095849 C85.9714085,19.2452777 86.1229851,20.037747 86.1229851,20.9998908 C86.1229851,21.9618162 85.9714085,22.7542855 85.6491711,23.4899783 C84.9483212,25.017922 83.3755219,25.923726 81.1009953,25.923726 Z M97.7704741,20.4716507 L97.7704741,22.4330614 L102.337515,22.4330614 C102.28092,22.9241784 102.185938,23.3390838 102.015716,23.7349909 C101.313989,25.2255931 99.627123,25.942506 97.5054892,25.942506 C95.2498274,25.942506 93.544097,25.1312567 92.8050787,23.4899783 C92.5017062,22.8101886 92.3496908,22.0373727 92.3496908,20.9998908 C92.3496908,19.9809705 92.4828413,19.1889379 92.8050787,18.5095849 C93.5247934,16.8680882 95.2305239,16.0566205 97.5054892,16.0566205 C98.9830869,16.0566205 100.309986,16.4151862 101.162193,17.1886572 C101.674175,17.6417775 102.015716,18.2647908 102.167293,19.037825 L104.668416,19.037825 C104.517278,17.7171156 103.834635,16.5289576 102.906311,15.7177083 C101.617581,14.5481119 99.7032404,14.0004367 97.4861856,14.0004367 C93.9992655,14.0004367 91.5536394,15.3211461 90.4739577,17.6987724 C90.0378733,18.642573 89.8108374,19.7173964 89.8108374,21.0003276 C89.8108374,22.2830404 90.0378733,23.3587372 90.4553122,24.3012276 C91.5170066,26.6598556 93.979962,28 97.4293718,28 C100.707682,28 103.057668,26.7921885 104.118485,24.4527772 C104.573873,23.4338569 104.782044,22.3590336 104.782044,21.0188891 L104.782044,20.4720875 L97.7704741,20.4720875 L97.7704741,20.4716507 Z M116.892379,27.6591225 L119.393941,27.6591225 L113.689747,14.3400041 L110.297371,14.3400041 L104.573873,27.6591225 L107.113165,27.6591225 L108.439625,24.4711204 L115.5657,24.4711204 L116.892379,27.6591225 Z M109.25476,22.4902747 L111.964933,15.9247243 L112.003101,15.9247243 L114.732138,22.4902747 L109.25476,22.4902747 Z M121.776612,27.6591225 L124.144585,27.6591225 L124.144585,16.358628 L128.105977,16.358628 L128.105977,14.3400041 L117.796135,14.3400041 L117.796135,16.358628 L121.776612,16.358628 L121.776612,27.6591225 Z M132.735535,27.6591225 L135.104824,27.6591225 L135.104824,16.358628 L139.065339,16.358628 L139.065339,14.3400041 L128.755936,14.3400041 L128.755936,16.358628 L132.735754,16.358628 L132.735754,27.6591225 L132.735535,27.6591225 Z M146.799695,27.9995633 C150.286615,27.9995633 152.636162,26.6408573 153.678991,24.376784 C154.133502,23.3960787 154.360976,22.2443886 154.360976,20.9998908 C154.360976,19.7728627 154.133502,18.6421363 153.697856,17.6601207 C152.674769,15.3774859 150.324344,14 146.818998,14 C143.312775,14 140.943924,15.3964842 139.901094,17.7168973 C139.484313,18.6598244 139.257058,19.791861 139.257058,20.9998908 C139.257058,22.2262638 139.484094,23.3583004 139.920178,24.3197891 C140.943924,26.6408573 143.312775,27.9995633 146.799695,27.9995633 Z M146.818998,25.923726 C144.525607,25.923726 142.952807,25.0181404 142.270384,23.4899783 C141.947708,22.7542855 141.79657,21.9618162 141.79657,20.9998908 C141.79657,20.037747 141.947708,19.2452777 142.270384,18.5095849 C142.952807,16.9812045 144.525607,16.0756188 146.818998,16.0756188 C149.093086,16.0756188 150.665885,16.9812045 151.367174,18.5095849 C151.688973,19.2452777 151.840549,20.037747 151.840549,20.9998908 C151.840549,21.9618162 151.688973,22.7542855 151.367174,23.4899783 C150.665885,25.017922 149.093086,25.923726 146.818998,25.923726 Z" id="Shape" fill="#FEFFFF"></path>
            <path d="M2.50290954,23.0490229 L2.50290954,18.9514 L7.67905099,16.3319238 L12.8554071,18.9514 L12.8554071,23.0490229 L7.67905099,25.6684991 L2.50290954,23.0490229 Z M0.360976493,17.6115323 L0.360976493,24.3884677 L7.67905099,28 L14.9973401,24.3884677 L14.9973401,17.6115323 L7.67905099,14 L0.360976493,17.6115323 Z" id="Shape" fill="#00FFFF"></path>
            <path d="M10.1397025,9.04924717 L10.1397025,4.95075283 L15.3154146,2.33181811 L20.4915561,4.95075283 L20.4915561,9.04924717 L15.3154146,11.6688162 L10.1397025,9.04924717 Z M15.3154146,0 L7.99734013,3.61179153 L7.99734013,10.3888427 L15.3154146,14 L22.6337038,10.3888427 L22.6337038,3.61158011 L15.3154146,0 Z" id="Shape" fill="#00FFFF"></path>
        </g>
    </g>
</svg>