<?xml version="1.0" encoding="UTF-8"?>
<svg width="20px" height="19px" viewBox="0 0 20 19" version="1.1" xmlns="http://www.w3.org/2000/svg" xmlns:xlink="http://www.w3.org/1999/xlink">
    <!-- Generator: Sketch 51.3 (57544) - http://www.bohemiancoding.com/sketch -->
    <title>telegram</title>
    <desc>Created with Sketch.</desc>
    <defs></defs>
    <g id="telegram" stroke="none" stroke-width="1" fill="none" fill-rule="evenodd">
        <g id="Group-7">
            <g id="Group" transform="translate(0.454737, 0.000000)">
                <rect id="Rectangle" x="0" y="0" width="18.1894737" height="18.9473684"></rect>
                <g id="iconmonstr-telegram-5" transform="translate(1.114551, 1.671827)" fill="#FFFFFF">
                    <path d="M7.80185759,0 C3.49328173,0 0,3.49328173 0,7.80185759 C0,12.1104334 3.49328173,15.6037152 7.80185759,15.6037152 C12.1104334,15.6037152 15.6037152,12.1104334 15.6037152,7.80185759 C15.6037152,3.49328173 12.1104334,0 7.80185759,0 Z M7.80185759,1.3003096 C11.3868111,1.3003096 14.3034056,4.21690402 14.3034056,7.80185759 C14.3034056,11.3868111 11.3868111,14.3034056 7.80185759,14.3034056 C4.21690402,14.3034056 1.3003096,11.3868111 1.3003096,7.80185759 C1.3003096,4.21690402 4.21690402,1.3003096 7.80185759,1.3003096 Z M9.5520743,10.9804644 C9.65674923,11.0552322 9.79133127,11.0734365 9.91160991,11.0279257 C10.0318885,10.9824149 10.1209598,10.8796904 10.1469659,10.7548607 C10.4297833,9.42724458 11.1150464,6.06659443 11.3718576,4.85925697 C11.3913622,4.76823529 11.3595046,4.67396285 11.2879876,4.6128483 C11.2164706,4.5523839 11.1169969,4.53482972 11.0285759,4.56733746 C9.66585139,5.07185759 5.46780186,6.64653251 3.75204334,7.28173375 C3.64281734,7.32204334 3.57195046,7.42671827 3.57585139,7.54179567 C3.57975232,7.65687307 3.65712074,7.75634675 3.76829721,7.78950464 C4.5380805,8.01965944 5.54842105,8.34018576 5.54842105,8.34018576 C5.54842105,8.34018576 6.01978328,9.76597523 6.26619195,10.4908978 C6.29674923,10.5812693 6.36826625,10.6534365 6.46188854,10.6774923 C6.55616099,10.7021981 6.65563467,10.6768421 6.72585139,10.6105263 C7.12114551,10.2373375 7.73229102,9.66065015 7.73229102,9.66065015 C7.73229102,9.66065015 8.89346749,10.5117028 9.5520743,10.9804644 Z M5.97297214,8.16009288 L6.51910217,9.96037152 L6.64003096,8.82 C6.64003096,8.82 8.74848297,6.91829721 9.9506192,5.83383901 C9.98637771,5.80263158 9.99092879,5.74931889 9.96167183,5.71160991 C9.93241486,5.67455108 9.87975232,5.66544892 9.83944272,5.69080495 C8.44616099,6.58021672 5.97297214,8.16009288 5.97297214,8.16009288 Z" id="telegram-5"></path>
                </g>
            </g>
        </g>
    </g>
</svg>